<svg version="1" xmlns="http://www.w3.org/2000/svg" width="682.667" height="682.667" viewBox="0 0 512 512"><path d="M232.5.6c-1.6.2-8 1.1-14.2 2C176.1 8.3 130.8 28.1 95.5 56 85.2 64.1 64.1 85.2 56 95.5c-22.7 28.6-40.5 64.9-49 99.7C1.5 217.5.5 227.1.5 256s1 38.5 6.5 60.8c8.5 34.8 26.3 71.1 49 99.7 8.1 10.3 29.2 31.4 39.5 39.5 28.6 22.7 64.9 40.5 99.7 49 22.3 5.5 31.9 6.5 60.8 6.5s38.5-1 60.8-6.5c34.8-8.5 71.1-26.3 99.7-49 10.3-8.1 31.4-29.2 39.5-39.5 22.7-28.6 40.5-64.9 49-99.7 5.5-22.3 6.5-31.9 6.5-60.8s-1-38.5-6.5-60.8c-8.5-34.8-26.3-71.1-49-99.7-8.1-10.3-29.2-31.4-39.5-39.5-34.9-27.6-77.7-46.4-122-53.6C285 .9 240-.4 232.5.6zm-38.6 182.1c29.7 91.3 59.1 182 59.1 182.6 0 .4-6.2.7-13.8.7h-13.8l-3.7-12.3c-2.1-6.7-6.1-19.3-8.8-28l-5-15.7-44.1.2-44 .3-8.7 27.7-8.6 27.8H89.1c-10.2 0-13.2-.3-12.9-1.3.3-.6 16.4-50.1 35.9-109.9L147.5 146h34.4l12 36.7zM360 148.5c12.9 2.1 27.3 7.2 37.3 13.1 29.2 17.3 40.8 46.7 39.4 99.8-.5 22.2-2.1 33-6.8 47.1-9.3 27.8-30.6 46-64.2 54.7-7.4 1.9-11.6 2.1-42.9 2.5l-34.8.5V145.7l31.3.6c21.5.4 34.1 1.1 40.7 2.2z"/><path d="M145.4 228.3c-9.9 32-17.9 58.5-17.7 58.9.2.5 16.6.8 36.4.8 28 0 35.9-.3 35.9-1.3.1-1.9-35.3-116.7-35.9-116.7-.3 0-8.7 26.2-18.7 58.3zM315.2 256.1l.3 88.4 18.2-.2c15.1-.1 19.6-.5 26-2.3 10.8-3 18.6-7.4 26.9-15.3 11.3-10.7 16.7-22.9 20-44.9 2-13.7 1.4-48.9-1-60.3-3.3-15.7-9.3-28-18.6-37.5-10.9-11.3-22.6-14.8-52.3-15.7l-19.7-.6.2 88.4z"/></svg>