<?xml version="1.0" standalone="no"?>
<!DOCTYPE svg PUBLIC "-//W3C//DTD SVG 20010904//EN"
  "http://www.w3.org/TR/2001/REC-SVG-20010904/DTD/svg10.dtd">
<svg version="1.0" xmlns="http://www.w3.org/2000/svg"
     width="512.000000pt" height="512.000000pt" viewBox="0 0 512.000000 512.000000"
     preserveAspectRatio="xMidYMid meet">
  <metadata>
    Created by potrace 1.11, written by Peter Selinger 2001-2013
  </metadata>
  <g transform="translate(0.000000,512.000000) scale(0.100000,-0.100000)"
     fill="#000000" stroke="none">
    <path d="M2325 5114 c-16 -2 -80 -11 -142 -20 -422 -57 -875 -255 -1228 -534
-103 -81 -314 -292 -395 -395 -227 -286 -405 -649 -490 -997 -55 -223 -65
-319 -65 -608 0 -289 10 -385 65 -608 85 -348 263 -711 490 -997 81 -103 292
-314 395 -395 286 -227 649 -405 997 -490 223 -55 319 -65 608 -65 289 0 385
10 608 65 348 85 711 263 997 490 103 81 314 292 395 395 227 286 405 649 490
997 55 223 65 319 65 608 0 289 -10 385 -65 608 -85 348 -263 711 -490 997
-81 103 -292 314 -395 395 -349 276 -777 464 -1220 536 -95 15 -545 28 -620
18z m-386 -1821 c297 -913 591 -1820 591 -1826 0 -4 -62 -7 -138 -7 l-138 0
-37 123 c-21 67 -61 193 -88 280 l-50 157 -441 -2 -440 -3 -87 -277 -86 -278
-134 0 c-102 0 -132 3 -129 13 3 6 164 501 359 1099 l354 1088 172 0 172 0
120 -367z m1661 342 c129 -21 273 -72 373 -131 292 -173 408 -467 394 -998 -5
-222 -21 -330 -68 -471 -93 -278 -306 -460 -642 -547 -74 -19 -116 -21 -429
-25 l-348 -5 0 1103 0 1102 313 -6 c215 -4 341 -11 407 -22z"/>
    <path d="M1454 2837 c-99 -320 -179 -585 -177 -589 2 -5 166 -8 364 -8 280 0
359 3 359 13 1 19 -353 1167 -359 1167 -3 0 -87 -262 -187 -583z"/>
    <path d="M3152 2559 l3 -884 182 2 c151 1 196 5 260 23 108 30 186 74 269 153
113 107 167 229 200 449 20 137 14 489 -10 603 -33 157 -93 280 -186 375 -109
113 -226 148 -523 157 l-197 6 2 -884z"/>
  </g>
</svg>
